Coordinates
version=1
nRows=6
nColumns=107
inDegrees=yes

Units are S.I. units (second, meters, Newtons, ...)
If the header above contains a line with 'inDegrees', this indicates whether rotational values are in degrees (yes) or radians (no).

endheader
time	sternoclavicular_r2	sternoclavicular_r3	unrotscap_r3	unrotscap_r2	acromioclavicular_r2	acromioclavicular_r3	acromioclavicular_r1	unrothum_r1	unrothum_r3	unrothum_r2	elv_angle	shoulder_elv	shoulder1_r2	shoulder_rot	elbow_flexion	pro_sup	deviation	flexion	proximal_distal_r1	proximal_distal_r3	cmc_flexion	cmc_abduction	mp_flexion	ip_flexion	mcp2_flexion	mcp2_abduction	pm2_flexion	md2_flexion	mcp3_flexion	mcp3_abduction	pm3_flexion	md3_flexion	mcp4_flexion	mcp4_abduction	pm4_flexion	md4_flexion	mcp5_flexion	mcp5_abduction	pm5_flexion	md5_flexion	bicpt_tx	bicpt_ty	bicpt_tz	bicpt2_tx	bicpt2_ty	bicpt2_tz	ptpt_tx	ptpt_ty	ptpt_tz	FCUpt_tx	FCUpt_ty	FCUpt_tz	EDCpt_tx	EDCpt_ty	EDCpt_tz	APLpt_tx	APLpt_ty	APLpt_tz	FPLpt_tx	FPLpt_ty	FPLpt_tz	FPLpt2_tx	FPLpt2_ty	FPLpt2_tz	PEC1pt2_tx	PEC1pt2_ty	PEC1pt2_tz	PEC1pt3_tx	PEC1pt3_ty	PEC1pt3_tz	PEC2pt2_tx	PEC2pt2_ty	PEC2pt2_tz	PEC2pt3_tx	PEC2pt3_ty	PEC2pt3_tz	PEC3pt2_tx	PEC3pt2_ty	PEC3pt2_tz	PEC3pt3_tx	PEC3pt3_ty	PEC3pt3_tz	DELT2pt2a_tx	DELT2pt2a_ty	DELT2pt2a_tz	DELT2pt2_tx	DELT2pt2_ty	DELT2pt2_tz	LAT1pt2_tx	LAT1pt2_ty	LAT1pt2_tz	LAT1pt3_tx	LAT1pt3_ty	LAT1pt3_tz	LAT2pt2_tx	LAT2pt2_ty	LAT2pt2_tz	LAT2pt3_tx	LAT2pt3_ty	LAT2pt3_tz	LAT3pt2_tx	LAT3pt2_ty	LAT3pt2_tz	LAT3pt3_tx	LAT3pt3_ty	LAT3pt3_tz
      1.53333333	     -0.33500548	      0.14189251	     -0.14189251	      0.33500548	     -0.06783180	      0.54819271	      0.24640885	     -0.24640885	     -0.54819271	      0.06783180	     95.58928172	     79.31552591	     -1.66834770	      1.66535851	     29.33899610	    -87.60036607	      0.40984542	      0.31765260	      0.41873104	      0.15882630	     33.87039983	    -12.06225384	    -15.57392585	     -6.05088229	    -12.47976742	      9.45561154	     35.06872756	      8.65589688	    -13.51271211	     -2.76213098	     20.45008298	     18.45829025	     -9.87873563	     -2.57184980	     13.21413887	     21.62667821	     17.16182105	    -14.38484798	    -13.35069895	      5.04595930	      0.00087044	     -0.03096270	     -0.00484164	     -0.00228835	     -0.01817008	     -0.00967721	      0.01402268	     -0.06071466	      0.00700668	     -0.00255379	     -0.18383785	      0.00665018	      0.01051202	     -0.00129778	     -0.00334970	     -0.00040950	     -0.00016380	     -0.00081900	     -0.00052416	     -0.00157247	     -0.00088451	     -0.00001228	     -0.00020942	     -0.00025131	      0.00259979	      0.00912129	      0.00634525	     -0.00850439	      0.02053393	     -0.01947638	      0.00259979	      0.00912129	      0.00634525	      0.00057283	      0.01903574	     -0.01000258	      0.00406531	      0.00507224	      0.01624731	      0.00000000	      0.00841835	      0.00000000	     -0.00744685	     -0.03441415	     -0.00694467	     -0.00186496	     -0.00001980	     -0.00010152	     -0.00092535	      0.01551060	     -0.00634525	      0.00255572	      0.02238462	     -0.01850697	     -0.00621305	      0.01343959	     -0.00568428	     -0.01295488	      0.02837736	     -0.03177030	     -0.02432345	      0.01502590	     -0.00762311	     -0.01612750	      0.03278378	     -0.03970186
      1.56666667	     -0.33346213	      0.14123882	     -0.14123882	      0.33346213	     -0.06751930	      0.54566722	      0.24527366	     -0.24527366	     -0.54566722	      0.06751930	     95.60503799	     78.95012366	     -1.66862269	      0.67745260	     29.64854311	    -88.55726121	      0.40845217	      0.32353891	      0.41777298	      0.16176946	     34.17789902	    -12.25862798	    -15.41912004	     -6.00210019	    -12.64558012	      9.39092213	     35.02274155	      8.64826246	    -13.33444036	     -2.95082524	     20.53968521	     18.47934173	     -9.61225664	     -2.69327540	     13.32100784	     21.65643279	     17.44225049	    -14.37953973	    -13.25273563	      5.07140165	      0.00088068	     -0.03099818	     -0.00484736	     -0.00257054	     -0.01825417	     -0.00960752	      0.01409338	     -0.06066894	      0.00708376	     -0.00261230	     -0.18382295	      0.00674927	      0.01062685	     -0.00129888	     -0.00340926	     -0.00041869	     -0.00016747	     -0.00083737	     -0.00053592	     -0.00160776	     -0.00090436	     -0.00001243	     -0.00020549	     -0.00024659	      0.00258781	      0.00907927	      0.00631602	     -0.00846521	      0.02043933	     -0.01938666	      0.00258781	      0.00907927	      0.00631602	      0.00057020	      0.01894805	     -0.00995650	      0.00405187	      0.00504887	      0.01621604	      0.00000000	      0.00834036	      0.00000000	     -0.00741255	     -0.03425561	     -0.00687998	     -0.00101508	     -0.00000590	     -0.00003340	     -0.00092109	      0.01543915	     -0.00631602	      0.00254395	      0.02228150	     -0.01842171	     -0.00618443	      0.01337767	     -0.00565810	     -0.01289520	      0.02824662	     -0.03162394	     -0.02421139	      0.01495667	     -0.00758799	     -0.01605321	      0.03263275	     -0.03951896
      1.60000000	     -0.33237865	      0.14077991	     -0.14077991	      0.33237865	     -0.06729992	      0.54389425	      0.24447672	     -0.24447672	     -0.54389425	      0.06729992	     95.84994854	     78.69360040	     -1.67289719	     -0.22691137	     29.29345206	    -87.83893789	      0.41395285	      0.37003713	      0.42153543	      0.18501857	     33.93686018	    -14.02408442	    -14.55138377	     -4.41365370	    -14.58040707	      8.61616695	     35.64085076	     10.27220772	    -14.14980852	     -4.09223068	     22.38993752	     18.49463743	     -9.66754821	     -3.76691657	     14.33120309	     22.27187570	     18.09985762	    -14.37915811	    -14.42118441	      5.06283491	      0.00086894	     -0.03095748	     -0.00484080	     -0.00235853	     -0.01815771	     -0.00965995	      0.01404031	     -0.06070326	      0.00702590	     -0.00256840	     -0.18383416	      0.00667483	      0.01054065	     -0.00129808	     -0.00336451	     -0.00049327	     -0.00019731	     -0.00098654	     -0.00063139	     -0.00189416	     -0.00106546	     -0.00001232	     -0.00020860	     -0.00025032	      0.00257940	      0.00904977	      0.00629549	     -0.00843771	      0.02037292	     -0.01932367	      0.00257940	      0.00904977	      0.00629549	      0.00056834	      0.01888648	     -0.00992415	      0.00404241	      0.00503246	      0.01619391	      0.00000000	      0.00828583	      0.00000000	     -0.00738846	     -0.03414431	     -0.00683474	     -0.00024853	      0.00000138	      0.00000898	     -0.00091809	      0.01538898	     -0.00629549	      0.00253568	      0.02220910	     -0.01836186	     -0.00616434	      0.01333420	     -0.00563971	     -0.01285330	      0.02815485	     -0.03152119	     -0.02413272	      0.01490808	     -0.00756334	     -0.01600105	      0.03252672	     -0.03939055
      1.63333333	     -0.33256588	      0.14085921	     -0.14085921	      0.33256588	     -0.06733783	      0.54420062	      0.24461443	     -0.24461443	     -0.54420062	      0.06733783	     95.85620465	     78.73792754	     -1.67300638	     -0.08420945	     29.22622492	    -87.86030032	      0.41365963	      0.37537250	      0.42133611	      0.18768625	     33.95226718	    -14.68278815	    -14.13121529	     -6.13781706	    -14.67992656	      8.19167015	     35.12703719	     11.63847345	    -13.88321695	     -4.25634541	     22.33779096	     18.91490882	     -8.86380801	     -3.87207912	     13.91428302	     22.43622076	     19.47299119	    -14.36815308	    -14.26525323	      5.02956448	      0.00086671	     -0.03094977	     -0.00483956	     -0.00236481	     -0.01813945	     -0.00965840	      0.01404188	     -0.06070224	      0.00702762	     -0.00256971	     -0.18383383	      0.00667703	      0.01054321	     -0.00129810	     -0.00336583	     -0.00050205	     -0.00020082	     -0.00100411	     -0.00064263	     -0.00192789	     -0.00108444	     -0.00001232	     -0.00020839	     -0.00025006	      0.00258086	      0.00905487	      0.00629904	     -0.00844246	      0.02038439	     -0.01933455	      0.00258086	      0.00905487	      0.00629904	      0.00056866	      0.01889712	     -0.00992974	      0.00404405	      0.00503530	      0.01619774	      0.00000000	      0.00829524	      0.00000000	     -0.00739262	     -0.03416354	     -0.00684255	     -0.00036870	      0.00000060	      0.00000366	     -0.00091861	      0.01539765	     -0.00629904	      0.00253711	      0.02222161	     -0.01837220	     -0.00616781	      0.01334172	     -0.00564289	     -0.01286054	      0.02817070	     -0.03153894	     -0.02414632	      0.01491648	     -0.00756760	     -0.01601006	      0.03254504	     -0.03941274
      1.66666667	     -0.33265497	      0.14089695	     -0.14089695	      0.33265497	     -0.06735586	      0.54434641	      0.24467996	     -0.24467996	     -0.54434641	      0.06735586	     95.85922190	     78.75902132	     -1.67305904	     -0.09003485	     29.22366146	    -87.86151305	      0.41365340	      0.37538209	      0.42133187	      0.18769105	     33.94968894	    -14.68466097	    -14.13267661	     -6.13822057	    -14.68086808	      8.19210886	     35.12666714	     11.63832375	    -13.88585282	     -4.25555882	     22.33706263	     18.91473941	     -8.86164488	     -3.87107254	     13.91546449	     22.43644982	     19.47831830	    -14.36728511	    -14.26285034	      5.02987682	      0.00086663	     -0.03094948	     -0.00483951	     -0.00236517	     -0.01813875	     -0.00965831	      0.01404197	     -0.06070218	      0.00702772	     -0.00256978	     -0.18383381	      0.00667716	      0.01054336	     -0.00129811	     -0.00336591	     -0.00050207	     -0.00020083	     -0.00100415	     -0.00064266	     -0.00192797	     -0.00108448	     -0.00001232	     -0.00020842	     -0.00025010	      0.00258155	      0.00905730	      0.00630073	     -0.00844472	      0.02038985	     -0.01933973	      0.00258155	      0.00905730	      0.00630073	      0.00056882	      0.01890218	     -0.00993240	      0.00404483	      0.00503665	      0.01619957	      0.00000000	      0.00829972	      0.00000000	     -0.00739460	     -0.03417269	     -0.00684627	     -0.00036392	      0.00000057	      0.00000365	     -0.00091886	      0.01540178	     -0.00630073	      0.00253779	      0.02222756	     -0.01837712	     -0.00616946	      0.01334529	     -0.00564440	     -0.01286398	      0.02817825	     -0.03154739	     -0.02415279	      0.01492047	     -0.00756962	     -0.01601435	      0.03255376	     -0.03942330
      1.70000000	     -0.33243000	      0.14080166	     -0.14080166	      0.33243000	     -0.06731031	      0.54397827	      0.24451449	     -0.24451449	     -0.54397827	      0.06731031	     95.96116020	     78.70575655	     -1.67483820	     -0.31499700	     29.11854942	    -87.63861227	      0.41192519	      0.36013069	      0.42015436	      0.18006535	     33.50962542	    -14.88897875	    -15.13267014	     -6.35754917	    -14.60606032	      8.38429743	     35.28593629	     12.10162004	    -14.15638287	     -4.03406966	     22.40683920	     18.86286921	     -8.76286466	     -3.69710174	     15.30230790	     22.19702135	     20.91884383	    -14.34295460	    -13.27597960	      5.03484141	      0.00086315	     -0.03093743	     -0.00483757	     -0.00229961	     -0.01811020	     -0.00967444	      0.01402550	     -0.06071283	      0.00700976	     -0.00255613	     -0.18383726	      0.00665413	      0.01051661	     -0.00129783	     -0.00335207	     -0.00047708	     -0.00019083	     -0.00095415	     -0.00061066	     -0.00183197	     -0.00103048	     -0.00001207	     -0.00021391	     -0.00025669	      0.00257980	      0.00905117	      0.00629647	     -0.00843901	      0.02037606	     -0.01932665	      0.00257980	      0.00905117	      0.00629647	      0.00056843	      0.01888940	     -0.00992568	      0.00404286	      0.00503324	      0.01619496	      0.00000000	      0.00828842	      0.00000000	     -0.00738960	     -0.03414958	     -0.00683688	     -0.00017450	      0.00000180	      0.00001201	     -0.00091823	      0.01539136	     -0.00629647	      0.00253608	      0.02221253	     -0.01836469	     -0.00616529	      0.01333626	     -0.00564058	     -0.01285528	      0.02815919	     -0.03152605	     -0.02413645	      0.01491038	     -0.00756450	     -0.01600352	      0.03253174	     -0.03939664
